# 3ds Max Wavefront OBJ Exporter v0.97b - (c)2007 guruware
# File Created: 09.01.2020 20:10:49

mtllib Platform.mtl

#
# object Cylinder001
#

v  97.0631 0.0000 -9.0463
v  95.1416 0.0000 -28.5554
v  95.1416 5.0000 -28.5554
v  97.0631 5.0000 -9.0463
v  89.4510 0.0000 -47.3147
v  89.4510 5.0000 -47.3147
v  80.2100 0.0000 -64.6034
v  80.2100 5.0000 -64.6034
v  67.7737 0.0000 -79.7570
v  67.7737 5.0000 -79.7570
v  52.6201 0.0000 -92.1933
v  52.6201 5.0000 -92.1933
v  35.3314 0.0000 -101.4343
v  35.3314 5.0000 -101.4343
v  16.5721 0.0000 -107.1249
v  16.5721 5.0000 -107.1249
v  -2.9369 0.0000 -109.0463
v  -2.9369 5.0000 -109.0463
v  -22.4460 0.0000 -107.1249
v  -22.4460 5.0000 -107.1249
v  -41.2053 0.0000 -101.4343
v  -41.2053 5.0000 -101.4343
v  -58.4939 0.0000 -92.1933
v  -58.4939 5.0000 -92.1933
v  -73.6476 0.0000 -79.7570
v  -73.6476 5.0000 -79.7570
v  -86.0839 0.0000 -64.6034
v  -86.0839 5.0000 -64.6034
v  -95.3249 0.0000 -47.3147
v  -95.3249 5.0000 -47.3147
v  -101.0155 0.0000 -28.5554
v  -101.0155 5.0000 -28.5554
v  -102.9369 0.0000 -9.0463
v  -102.9369 5.0000 -9.0463
v  -101.0155 0.0000 10.4627
v  -101.0155 5.0000 10.4627
v  -95.3249 0.0000 29.2220
v  -95.3249 5.0000 29.2220
v  -86.0839 0.0000 46.5107
v  -86.0839 5.0000 46.5107
v  -73.6476 0.0000 61.6644
v  -73.6476 5.0000 61.6644
v  -58.4939 0.0000 74.1007
v  -58.4939 5.0000 74.1007
v  -41.2052 0.0000 83.3416
v  -41.2052 5.0000 83.3416
v  -22.4459 0.0000 89.0322
v  -22.4459 5.0000 89.0322
v  -2.9368 0.0000 90.9537
v  -2.9368 5.0000 90.9537
v  16.5722 0.0000 89.0322
v  16.5722 5.0000 89.0322
v  35.3315 0.0000 83.3416
v  35.3315 5.0000 83.3416
v  52.6202 0.0000 74.1006
v  52.6202 5.0000 74.1006
v  67.7738 0.0000 61.6642
v  67.7738 5.0000 61.6642
v  80.2101 0.0000 46.5106
v  80.2101 5.0000 46.5106
v  89.4511 0.0000 29.2219
v  89.4511 5.0000 29.2219
v  95.1416 0.0000 10.4625
v  95.1416 5.0000 10.4625
# 64 vertices

vn 1.0000 0.0000 -0.0000
vn 0.9808 0.0000 -0.1951
vn 0.7139 0.6857 -0.1420
vn 0.7279 0.6857 -0.0000
vn 0.9239 0.0000 -0.3827
vn 0.6725 0.6857 -0.2786
vn 0.8315 0.0000 -0.5556
vn 0.6052 0.6857 -0.4044
vn 0.7071 0.0000 -0.7071
vn 0.5147 0.6857 -0.5147
vn 0.5556 0.0000 -0.8315
vn 0.4044 0.6857 -0.6052
vn 0.3827 0.0000 -0.9239
vn 0.2785 0.6857 -0.6724
vn 0.1951 0.0000 -0.9808
vn 0.1420 0.6857 -0.7139
vn 0.0000 0.0000 -1.0000
vn 0.0000 0.6857 -0.7279
vn -0.1951 0.0000 -0.9808
vn -0.1420 0.6857 -0.7139
vn -0.3827 0.0000 -0.9239
vn -0.2785 0.6857 -0.6724
vn -0.5556 0.0000 -0.8315
vn -0.4044 0.6857 -0.6052
vn -0.7071 0.0000 -0.7071
vn -0.5147 0.6857 -0.5147
vn -0.8315 0.0000 -0.5556
vn -0.6052 0.6857 -0.4044
vn -0.9239 0.0000 -0.3827
vn -0.6725 0.6857 -0.2786
vn -0.9808 0.0000 -0.1951
vn -0.7139 0.6857 -0.1420
vn -1.0000 0.0000 0.0000
vn -0.7279 0.6857 0.0000
vn -0.9808 0.0000 0.1951
vn -0.7139 0.6857 0.1420
vn -0.9239 0.0000 0.3827
vn -0.6725 0.6857 0.2786
vn -0.8315 0.0000 0.5556
vn -0.6052 0.6857 0.4044
vn -0.7071 0.0000 0.7071
vn -0.5147 0.6857 0.5147
vn -0.5556 0.0000 0.8315
vn -0.4044 0.6857 0.6052
vn -0.3827 0.0000 0.9239
vn -0.2785 0.6857 0.6725
vn -0.1951 0.0000 0.9808
vn -0.1420 0.6857 0.7139
vn -0.0000 0.0000 1.0000
vn -0.0000 0.6857 0.7279
vn 0.1951 0.0000 0.9808
vn 0.1420 0.6858 0.7138
vn 0.3827 0.0000 0.9239
vn 0.2785 0.6857 0.6724
vn 0.5556 0.0000 0.8315
vn 0.4044 0.6857 0.6052
vn 0.7071 0.0000 0.7071
vn 0.5147 0.6857 0.5147
vn 0.8315 0.0000 0.5556
vn 0.6052 0.6857 0.4044
vn 0.9239 0.0000 0.3827
vn 0.6724 0.6857 0.2785
vn 0.9808 0.0000 0.1951
vn 0.7139 0.6857 0.1420
# 64 vertex normals

vt 0.0077 0.4671 -0.3188
vt 0.0083 0.4093 -0.3188
vt 0.0231 0.4094 -0.3188
vt 0.0225 0.4673 -0.3188
vt 0.0089 0.3514 -0.3188
vt 0.0237 0.3516 -0.3188
vt 0.0096 0.2936 -0.3188
vt 0.0243 0.2938 -0.3188
vt 0.0103 0.2359 -0.3188
vt 0.0250 0.2361 -0.3188
vt 0.0110 0.1781 -0.3188
vt 0.0257 0.1783 -0.3188
vt 0.0118 0.1204 -0.3188
vt 0.0265 0.1206 -0.3188
vt 0.0126 0.0627 -0.3188
vt 0.0273 0.0629 -0.3188
vt 0.0135 0.0050 0.3188
vt 0.0282 0.0052 -0.3188
vt 0.1243 0.0057 0.2825
vt 0.1824 0.0056 0.0000
vt 0.1824 0.0204 0.0000
vt 0.1243 0.0205 0.0000
vt 0.2405 0.0054 0.0000
vt 0.2405 0.0202 0.0000
vt 0.2986 0.0053 0.0000
vt 0.2986 0.0201 0.0000
vt 0.3566 0.0051 0.0000
vt 0.3567 0.0200 0.0000
vt 0.4147 0.0051 0.0000
vt 0.4147 0.0199 0.0000
vt 0.4728 0.0050 0.0000
vt 0.4728 0.0198 0.0000
vt 0.5308 0.0050 0.0000
vt 0.5308 0.0198 0.0000
vt 0.5889 0.0050 0.0000
vt 0.5889 0.0198 0.0000
vt 0.6469 0.0051 0.0000
vt 0.6469 0.0199 0.0000
vt 0.7050 0.0053 0.0000
vt 0.7049 0.0201 0.0000
vt 0.7630 0.0055 0.0000
vt 0.7629 0.0203 0.0000
vt 0.8210 0.0057 0.0000
vt 0.8209 0.0205 0.0000
vt 0.8790 0.0060 0.0000
vt 0.8789 0.0208 0.0000
vt 0.9370 0.0062 0.0000
vt 0.9369 0.0210 0.0000
vt 0.9950 0.0065 -0.2825
vt 0.9949 0.0213 0.0000
vt 0.0050 0.9918 -0.3188
vt 0.0050 0.9331 -0.3188
vt 0.0200 0.9332 -0.3188
vt 0.0200 0.9918 -0.3188
vt 0.0051 0.8746 -0.3188
vt 0.0200 0.8746 -0.3188
vt 0.0053 0.8161 -0.3188
vt 0.0202 0.8162 -0.3188
vt 0.0055 0.7577 -0.3188
vt 0.0204 0.7578 -0.3188
vt 0.0058 0.6995 -0.3188
vt 0.0207 0.6995 -0.3188
vt 0.0062 0.6413 -0.3188
vt 0.0210 0.6414 -0.3188
vt 0.0067 0.5831 -0.3188
vt 0.0215 0.5833 -0.3188
vt 0.0072 0.5251 -0.3188
vt 0.0220 0.5252 -0.3188
vt 0.9720 0.3627 0.1886
vt 0.9905 0.4544 -0.1886
vt 0.9907 0.5479 0.1886
vt 0.9727 0.6396 -0.1886
vt 0.9372 0.7261 0.1886
vt 0.8855 0.8040 0.1886
vt 0.8195 0.8703 0.1886
vt 0.7419 0.9225 0.1886
vt 0.6556 0.9585 0.1886
vt 0.5640 0.9770 0.1886
vt 0.4705 0.9773 0.1886
vt 0.3787 0.9593 0.1886
vt 0.2922 0.9237 0.1886
vt 0.2143 0.8720 0.1886
vt 0.1480 0.8061 0.1886
vt 0.0958 0.7285 0.1886
vt 0.0598 0.6422 0.1886
vt 0.0413 0.5505 0.1886
vt 0.0411 0.4570 0.1886
vt 0.0591 0.3653 0.1886
vt 0.0946 0.2788 0.1886
vt 0.1463 0.2009 0.1886
vt 0.2123 0.1346 0.1886
vt 0.2899 0.0824 0.1886
vt 0.3762 0.0464 0.1886
vt 0.4678 0.0279 0.1886
vt 0.5613 0.0276 0.1886
vt 0.6531 0.0456 0.1886
vt 0.7396 0.0812 0.1886
vt 0.8175 0.1329 0.1886
vt 0.8838 0.1988 0.1886
vt 0.9359 0.2764 0.1886
# 100 texture coords

o Cylinder001
g Cylinder001
usemtl wire_154215229
s 8
f 1/1/1 2/2/2 3/3/3 4/4/4 
f 2/2/2 5/5/5 6/6/6 3/3/3 
f 5/5/5 7/7/7 8/8/8 6/6/6 
f 7/7/7 9/9/9 10/10/10 8/8/8 
f 9/9/9 11/11/11 12/12/12 10/10/10 
f 11/11/11 13/13/13 14/14/14 12/12/12 
f 13/13/13 15/15/15 16/16/16 14/14/14 
f 15/15/15 17/17/17 18/18/18 16/16/16 
f 17/19/17 19/20/19 20/21/20 18/22/18 
f 19/20/19 21/23/21 22/24/22 20/21/20 
f 21/23/21 23/25/23 24/26/24 22/24/22 
f 23/25/23 25/27/25 26/28/26 24/26/24 
f 25/27/25 27/29/27 28/30/28 26/28/26 
f 27/29/27 29/31/29 30/32/30 28/30/28 
f 29/31/29 31/33/31 32/34/32 30/32/30 
f 31/33/31 33/35/33 34/36/34 32/34/32 
f 33/35/33 35/37/35 36/38/36 34/36/34 
f 35/37/35 37/39/37 38/40/38 36/38/36 
f 37/39/37 39/41/39 40/42/40 38/40/38 
f 39/41/39 41/43/41 42/44/42 40/42/40 
f 41/43/41 43/45/43 44/46/44 42/44/42 
f 43/45/43 45/47/45 46/48/46 44/46/44 
f 45/47/45 47/49/47 48/50/48 46/48/46 
f 47/51/47 49/52/49 50/53/50 48/54/48 
f 49/52/49 51/55/51 52/56/52 50/53/50 
f 51/55/51 53/57/53 54/58/54 52/56/52 
f 53/57/53 55/59/55 56/60/56 54/58/54 
f 55/59/55 57/61/57 58/62/58 56/60/56 
f 57/61/57 59/63/59 60/64/60 58/62/58 
f 59/63/59 61/65/61 62/66/62 60/64/60 
f 61/65/61 63/67/63 64/68/64 62/66/62 
f 63/67/63 1/1/1 4/4/4 64/68/64 
s 1
f 64/69/64 4/70/4 3/71/3 6/72/6 8/73/8 10/74/10 12/75/12 14/76/14 16/77/16 18/78/18 20/79/20 22/80/22 24/81/24 26/82/26 28/83/28 30/84/30 32/85/32 34/86/34 36/87/36 38/88/38 40/89/40 42/90/42 44/91/44 46/92/46 48/93/48 50/94/50 52/95/52 54/96/54 56/97/56 58/98/58 60/99/60 62/100/62 
# 33 polygons

